<svg width="135" height="22" viewBox="0 0 135 22" fill="none" xmlns="http://www.w3.org/2000/svg">
<path d="M4.434 2.852V21H0.794V2.852H4.434ZM16.0123 6.388C17.7283 6.388 19.115 6.934 20.1723 8.026C21.2297 9.10067 21.7583 10.6087 21.7583 12.55V21H18.1183V13.044C18.1183 11.9 17.8323 11.0247 17.2603 10.418C16.6883 9.794 15.9083 9.482 14.9203 9.482C13.915 9.482 13.1177 9.794 12.5283 10.418C11.9563 11.0247 11.6703 11.9 11.6703 13.044V21H8.03033V6.596H11.6703V8.39C12.1557 7.766 12.771 7.28067 13.5163 6.934C14.279 6.57 15.111 6.388 16.0123 6.388ZM33.2018 6.388C34.9178 6.388 36.3044 6.934 37.3618 8.026C38.4191 9.10067 38.9478 10.6087 38.9478 12.55V21H35.3078V13.044C35.3078 11.9 35.0218 11.0247 34.4498 10.418C33.8778 9.794 33.0978 9.482 32.1098 9.482C31.1044 9.482 30.3071 9.794 29.7178 10.418C29.1458 11.0247 28.8598 11.9 28.8598 13.044V21H25.2198V6.596H28.8598V8.39C29.3451 7.766 29.9604 7.28067 30.7058 6.934C31.4684 6.57 32.3004 6.388 33.2018 6.388Z" fill="#3252DF"/>
<path d="M41.5252 11.9C41.5252 10.1147 41.9239 8.52 42.7212 7.116C43.5359 5.69467 44.6366 4.594 46.0232 3.814C47.4272 3.01667 48.9959 2.618 50.7292 2.618C52.7572 2.618 54.5339 3.138 56.0592 4.178C57.5846 5.218 58.6506 6.65667 59.2572 8.494H55.0712C54.6552 7.62733 54.0659 6.97733 53.3032 6.544C52.5579 6.11067 51.6912 5.894 50.7032 5.894C49.6459 5.894 48.7012 6.14533 47.8692 6.648C47.0546 7.13333 46.4132 7.82667 45.9452 8.728C45.4946 9.62933 45.2692 10.6867 45.2692 11.9C45.2692 13.096 45.4946 14.1533 45.9452 15.072C46.4132 15.9733 47.0546 16.6753 47.8692 17.178C48.7012 17.6633 49.6459 17.906 50.7032 17.906C51.6912 17.906 52.5579 17.6893 53.3032 17.256C54.0659 16.8053 54.6552 16.1467 55.0712 15.28H59.2572C58.6506 17.1347 57.5846 18.582 56.0592 19.622C54.5512 20.6447 52.7746 21.156 50.7292 21.156C48.9959 21.156 47.4272 20.766 46.0232 19.986C44.6366 19.1887 43.5359 18.088 42.7212 16.684C41.9239 15.28 41.5252 13.6853 41.5252 11.9ZM61.4303 13.746C61.4303 12.29 61.7163 10.9987 62.2883 9.872C62.8776 8.74533 63.6663 7.87867 64.6543 7.272C65.6596 6.66533 66.7776 6.362 68.0083 6.362C69.0829 6.362 70.0189 6.57867 70.8163 7.012C71.6309 7.44533 72.2809 7.99133 72.7663 8.65V6.596H76.4323V21H72.7663V18.894C72.2983 19.57 71.6483 20.1333 70.8163 20.584C70.0016 21.0173 69.0569 21.234 67.9823 21.234C66.7689 21.234 65.6596 20.922 64.6543 20.298C63.6663 19.674 62.8776 18.7987 62.2883 17.672C61.7163 16.528 61.4303 15.2193 61.4303 13.746ZM72.7663 13.798C72.7663 12.914 72.5929 12.16 72.2463 11.536C71.8996 10.8947 71.4316 10.4093 70.8423 10.08C70.2529 9.73333 69.6203 9.56 68.9443 9.56C68.2683 9.56 67.6443 9.72467 67.0723 10.054C66.5003 10.3833 66.0323 10.8687 65.6683 11.51C65.3216 12.134 65.1483 12.8793 65.1483 13.746C65.1483 14.6127 65.3216 15.3753 65.6683 16.034C66.0323 16.6753 66.5003 17.1693 67.0723 17.516C67.6616 17.8627 68.2856 18.036 68.9443 18.036C69.6203 18.036 70.2529 17.8713 70.8423 17.542C71.4316 17.1953 71.8996 16.71 72.2463 16.086C72.5929 15.4447 72.7663 14.682 72.7663 13.798ZM84.2254 9.586V16.554C84.2254 17.0393 84.338 17.3947 84.5634 17.62C84.806 17.828 85.2047 17.932 85.7594 17.932H87.4494V21H85.1614C82.0934 21 80.5594 19.5093 80.5594 16.528V9.586H78.8434V6.596H80.5594V3.034H84.2254V6.596H87.4494V9.586H84.2254ZM91.9134 4.88C91.2721 4.88 90.7348 4.68067 90.3014 4.282C89.8854 3.866 89.6774 3.35467 89.6774 2.748C89.6774 2.14133 89.8854 1.63867 90.3014 1.24C90.7348 0.823999 91.2721 0.615999 91.9134 0.615999C92.5548 0.615999 93.0834 0.823999 93.4994 1.24C93.9328 1.63867 94.1494 2.14133 94.1494 2.748C94.1494 3.35467 93.9328 3.866 93.4994 4.282C93.0834 4.68067 92.5548 4.88 91.9134 4.88ZM93.7074 6.596V21H90.0674V6.596H93.7074ZM103.7 21.234C102.313 21.234 101.065 20.9307 99.9558 20.324C98.8464 19.7 97.9711 18.8247 97.3298 17.698C96.7058 16.5713 96.3938 15.2713 96.3938 13.798C96.3938 12.3247 96.7144 11.0247 97.3558 9.898C98.0144 8.77133 98.9071 7.90467 100.034 7.298C101.16 6.674 102.417 6.362 103.804 6.362C105.19 6.362 106.447 6.674 107.574 7.298C108.7 7.90467 109.584 8.77133 110.226 9.898C110.884 11.0247 111.214 12.3247 111.214 13.798C111.214 15.2713 110.876 16.5713 110.2 17.698C109.541 18.8247 108.64 19.7 107.496 20.324C106.369 20.9307 105.104 21.234 103.7 21.234ZM103.7 18.062C104.358 18.062 104.974 17.906 105.546 17.594C106.135 17.2647 106.603 16.7793 106.95 16.138C107.296 15.4967 107.47 14.7167 107.47 13.798C107.47 12.4287 107.106 11.38 106.378 10.652C105.667 9.90667 104.792 9.534 103.752 9.534C102.712 9.534 101.836 9.90667 101.126 10.652C100.432 11.38 100.086 12.4287 100.086 13.798C100.086 15.1673 100.424 16.2247 101.1 16.97C101.793 17.698 102.66 18.062 103.7 18.062ZM121.866 6.388C123.582 6.388 124.969 6.934 126.026 8.026C127.083 9.10067 127.612 10.6087 127.612 12.55V21H123.972V13.044C123.972 11.9 123.686 11.0247 123.114 10.418C122.542 9.794 121.762 9.482 120.774 9.482C119.769 9.482 118.971 9.794 118.382 10.418C117.81 11.0247 117.524 11.9 117.524 13.044V21H113.884V6.596H117.524V8.39C118.009 7.766 118.625 7.28067 119.37 6.934C120.133 6.57 120.965 6.388 121.866 6.388ZM132.685 21.182C132.027 21.182 131.481 20.9827 131.047 20.584C130.631 20.168 130.423 19.6567 130.423 19.05C130.423 18.4433 130.631 17.9407 131.047 17.542C131.481 17.126 132.027 16.918 132.685 16.918C133.327 16.918 133.855 17.126 134.271 17.542C134.687 17.9407 134.895 18.4433 134.895 19.05C134.895 19.6567 134.687 20.168 134.271 20.584C133.855 20.9827 133.327 21.182 132.685 21.182Z" fill="#152C5B"/>
</svg>
